<svg width="24" height="24" viewBox="0 0 24 24" fill="none" xmlns="http://www.w3.org/2000/svg">
<g id="Send_fill">
<path id="Subtract" fill-rule="evenodd" clip-rule="evenodd" d="M10.0095 12.6767L7.8508 11.9572C5.59032 11.2037 4.46008 10.8269 4.46008 10.1346C4.46008 9.4422 5.59032 9.06546 7.8508 8.31196L16.0285 5.58607C17.619 5.05589 18.4143 4.79081 18.8341 5.2106C19.2539 5.63039 18.9888 6.42566 18.4586 8.0162L15.7327 16.1939C14.9792 18.4543 14.6025 19.5846 13.9101 19.5846C13.2178 19.5846 12.841 18.4543 12.0875 16.1939L11.368 14.0352L15.5499 9.85321C15.9251 9.47807 15.9251 8.86986 15.5499 8.49473C15.1748 8.11959 14.5666 8.11959 14.1915 8.49473L10.0095 12.6767Z" fill="#6610F2"/>
</g>
</svg>
