<svg width="21" height="22" viewBox="0 0 21 22" fill="none" xmlns="http://www.w3.org/2000/svg">
<path d="M4.88648 15.258H8.03841C9.43103 15.258 10.56 16.387 10.56 17.7796V10.0048C10.56 7.37535 10.56 6.06063 9.76531 5.22597C9.73279 5.19182 9.69945 5.15847 9.66529 5.12596C8.83064 4.3313 7.51592 4.3313 4.88648 4.3313C4.01 4.3313 3.57176 4.3313 3.29354 4.59618C3.28215 4.60702 3.27104 4.61814 3.2602 4.62952C2.99531 4.90774 2.99531 5.34598 2.99531 6.22246V13.3669C2.99531 14.2433 2.99531 14.6816 3.2602 14.9598C3.27104 14.9712 3.28215 14.9823 3.29354 14.9931C3.57176 15.258 4.01 15.258 4.88648 15.258Z" stroke="#9F9F9F" stroke-width="0.960591"/>
<path d="M16.2335 15.258H13.0815C11.6889 15.258 10.56 16.387 10.56 17.7796V10.0048C10.56 7.37535 10.56 6.06063 11.3546 5.22597C11.3871 5.19182 11.4205 5.15847 11.4546 5.12596C12.2893 4.3313 13.604 4.3313 16.2335 4.3313C17.1099 4.3313 17.5482 4.3313 17.8264 4.59618C17.8378 4.60702 17.8489 4.61814 17.8597 4.62952C18.1246 4.90774 18.1246 5.34598 18.1246 6.22246V13.3669C18.1246 14.2433 18.1246 14.6816 17.8597 14.9598C17.8489 14.9712 17.8378 14.9823 17.8264 14.9931C17.5482 15.258 17.1099 15.258 16.2335 15.258Z" stroke="#9F9F9F" stroke-width="0.960591"/>
</svg>
