<svg width="24" height="24" viewBox="0 0 24 24" fill="none" xmlns="http://www.w3.org/2000/svg">
<g id="Home_light">
<path id="Rectangle 1" d="M5.49567 12.7856C5.49567 11.4813 5.49567 10.8292 5.75931 10.256C6.02296 9.68275 6.51809 9.25835 7.50835 8.40956L8.46894 7.58619C10.2588 6.05201 11.1538 5.28491 12.2198 5.28491C13.2858 5.28491 14.1808 6.05201 15.9707 7.58619L16.9313 8.40956C17.9215 9.25835 18.4167 9.68275 18.6803 10.256C18.9439 10.8292 18.9439 11.4813 18.9439 12.7856V16.8588C18.9439 18.6702 18.9439 19.5758 18.3812 20.1385C17.8185 20.7012 16.9129 20.7012 15.1016 20.7012H9.33803C7.52672 20.7012 6.62107 20.7012 6.05837 20.1385C5.49567 19.5758 5.49567 18.6702 5.49567 16.8588V12.7856Z" stroke="#6610F2" stroke-width="0.960591"/>
<path id="Vector 3" d="M14.6213 20.7013V15.8983C14.6213 15.3678 14.1912 14.9377 13.6607 14.9377H10.7789C10.2484 14.9377 9.8183 15.3678 9.8183 15.8983V20.7013" stroke="#6610F2" stroke-width="0.960591" stroke-linecap="round" stroke-linejoin="round"/>
</g>
</svg>
