<svg width="25" height="25" viewBox="0 0 25 25" fill="none" xmlns="http://www.w3.org/2000/svg">
<g id="Bell_light">
<path id="Rectangle 1" d="M6.89604 9.0152C7.2096 6.18879 9.59846 4.05029 12.4422 4.05029V4.05029C15.286 4.05029 17.6748 6.18879 17.9884 9.0152L18.241 11.2924C18.2519 11.3904 18.2573 11.4394 18.2633 11.4879C18.3909 12.518 18.7258 13.5116 19.2479 14.4088C19.2724 14.451 19.2978 14.4933 19.3485 14.5779L19.9263 15.5425C20.4841 16.4735 20.7629 16.939 20.6737 17.3183C20.6317 17.4968 20.5395 17.6596 20.4079 17.7874C20.1283 18.0589 19.5857 18.0589 18.5004 18.0589H6.38402C5.29874 18.0589 4.7561 18.0589 4.47655 17.7874C4.34497 17.6596 4.25272 17.4968 4.21072 17.3183C4.12148 16.939 4.40035 16.4735 4.9581 15.5425L5.53594 14.5779C5.58663 14.4933 5.61198 14.451 5.63653 14.4088C6.15862 13.5116 6.49354 12.518 6.62109 11.4879C6.62709 11.4394 6.63253 11.3904 6.64341 11.2924L6.89604 9.0152Z" stroke="#9F9F9F" stroke-width="0.960591"/>
<path id="Ellipse 45" d="M9.54715 18.4653C9.71792 19.21 10.0942 19.868 10.6177 20.3373C11.1411 20.8066 11.7825 21.061 12.4422 21.061C13.102 21.061 13.7434 20.8066 14.2668 20.3373C14.7903 19.868 15.1666 19.21 15.3373 18.4653" stroke="#9F9F9F" stroke-width="0.960591" stroke-linecap="round"/>
</g>
</svg>
